<svg  xmlns="http://www.w3.org/2000/svg" viewBox="0 0 4052 1068.17">
    <g id="Layer_2" data-name="Layer 2">
        <g id="Layer_1-2" data-name="Layer 1" fill="#6b7280">
            <path d="M1915.79,15.66q7.2,5.84,14.07,12.06c1.92,1.61,3.88,3.07,5.91,4.54A96.63,96.63,0,0,1,1947.5,43c5.82,5.94,5.82,5.94,12,11.5,10.53,9,10.53,9,11.5,16.06l2.25.06c3.44,1.17,3.89,2.69,5.49,5.81,7.38,12.51,21.38,24.12,32.69,33.06,2.56,2.06,5,4.22,7.38,6.44,6.13,5.57,12.62,10.61,19.19,15.63l1.87,1.43A211.68,211.68,0,0,0,2067,150.52q2.51,1.48,5,3c12.64,7.23,25.88,12.89,39.39,18.27l6.92,2.78c9.1,3.65,18.06,7.18,27.75,8.89a51.89,51.89,0,0,1,13.94,5.06v2l2.2-.11c8-.21,16.47.22,23.66,4.12a20.15,20.15,0,0,0,6.93,1.7l2.82.33,3,.33a166.46,166.46,0,0,1,21.19,3.69c8.43,2.08,16.83,2.66,25.47,3.22a254.89,254.89,0,0,1,28.72,3.72v2l2.12-.07a48.74,48.74,0,0,1,23.55,5c2.31,1,4.64,1.93,7,2.81,6.82,2.69,13,6.54,19.31,10.25l1.8,1a48,48,0,0,1,10.26,7.46c2.71,2.51,5.4,5,8.32,7.25a16.43,16.43,0,0,1,4.43,5.12,30.58,30.58,0,0,0,6.5,6.88,45.21,45.21,0,0,1,9.89,12.4,58.71,58.71,0,0,0,4.58,6.34c4,5.25,6.54,11.18,9.17,17.18q1.31,2.94,2.63,5.86c.57,1.26,1.13,2.52,1.69,3.78l1.52,3.42a41.84,41.84,0,0,1,2.21,10.33l2.23.62c3.64,1.81,4.91,4,7.08,7.38l2.12,3.25c1.57,2.75,1.57,2.75,1.57,4.75h2v2h2v2h2v2h2v2l1.76.75a23.25,23.25,0,0,1,6.12,5.25c17.07,17.38,40.8,29.73,63.62,37.38,4.39,1.48,8.62,3.1,12.86,5,8.68,3.66,17.79,5.85,26.89,8.19l2.82.74a329.07,329.07,0,0,0,38.08,7.92,58,58,0,0,1,9.65,2.25c8.91,2.53,18.26,2.8,27.45,3.53l9.06.76,6,.5q9.15.77,18.29,1.7l2.18.22c3.31.34,6.61.68,9.91,1l3.48.36,3,.32a13.79,13.79,0,0,0,6-.5c2.83-.4,2.83-.4,5.83,1.6,1.55.3,3.12.54,4.69.75,5.66,1.06,9,3.44,13.31,7.19l2.08,1.77c13.53,11.72,21.87,24.87,29,41.15,1.42,3.19,3,6.28,4.57,9.39,3.72,7.35,7.28,14.77,10.79,22.21q1.78,3.78,3.59,7.54l1.31,2.74,1.31,2.68c.39.8.78,1.6,1.17,2.42a37.9,37.9,0,0,0,5.61,7.19,53.8,53.8,0,0,1,5,7.91A67.13,67.13,0,0,0,2756,542.52l2.62,2.75a36.1,36.1,0,0,0,5.19,4.44l2.19,1.81v2l1.76.86c2.08,1.06,4.11,2.14,6.12,3.33l1.92,1.1a25.85,25.85,0,0,1,4.84,5c3.7,4.42,8.16,6.85,13.17,9.56l2.82,1.57q9.49,5.25,19.12,10.26c3.63,1.89,7.21,3.83,10.74,5.9,8,4.62,15.46,8.5,24.39,10.87a20.25,20.25,0,0,1,9.12,4.53l3-2q-2.58-2.88-5.19-5.75l-1.46-1.63a59.45,59.45,0,0,0-7.21-6.89l-2.14-1.73v-2l-1.77-.81a32.29,32.29,0,0,1-6-4.19l-1.86-1.56c-1.39-1.44-1.39-1.44-1.39-3.44h-2c-1.29-1.45-2.51-3-3.69-4.5-2.5-3.21-5-6.35-7.75-9.38-15-16.95-15-16.95-14.56-25.12h-4c-.39-1-.78-2-1.19-3a44.87,44.87,0,0,0-4.25-7.75c-2.61-4-4-8.18-5.58-12.69a36.68,36.68,0,0,0-5-8.56v-2a102.46,102.46,0,0,1,30.24-12.91l4.6-1.26c4-1.1,8-2.17,12-3.24s8-2.17,12-3.26l18.53-5,2.2-.59,10.4-2.8,10.71-2.92,3.16-.84,2.83-.78,2.45-.67c2-.55,2-.55,2.83-2.71,2.81-.33,5.6-.38,8.43-.46a30,30,0,0,0,8.19-2.42c5.87-2.47,11.81-3.57,18.07-4.68,8.26-1.33,8.26-1.33,16.12-4,3.62-1.59,6.63-1.94,10.57-2.28a81.26,81.26,0,0,0,16.62-3.43c16.74-5.28,34.77-9.08,52.31-10.07a67.4,67.4,0,0,0,14.07-2.56c16.26-4.43,33.85-4.7,50.62-4.06l2.62.07c13.65.49,25.15,2.57,35.63,11.94,3.75,4.14,3.75,4.14,3.75,7l2.21.55c3.83,2,5.3,4.95,7.35,8.57a173.55,173.55,0,0,0,11.56,17.13c3.48,4.53,6.83,9.07,9.94,13.87,4.55,7,9.73,13.41,14.94,19.88,4.2,5.21,8.34,10.43,12.31,15.81,3.84,5.17,7.9,10.08,12.15,14.91a19.62,19.62,0,0,1,4.54,7.28h2a38,38,0,0,1,3.06,3.5,74.17,74.17,0,0,0,11.22,10.54c1.72,2,1.72,2,2,4.7-.08.74-.16,1.49-.25,2.26l2.62-.06c4.48,1.41,5.24,3.47,7.6,7.36a69.11,69.11,0,0,0,7,8.7l2.58,2.81c2,2.22,2,2.22,4.17,3.19v2l1.71.79a49,49,0,0,1,6.91,4.58l2.36,1.78a16.09,16.09,0,0,1,4,5.85q2.49,1,5,2c3,3.31,3,3.31,3,6h2c1.35,1.65,2.69,3.32,4,5l2,1v2l1.75.76a28.1,28.1,0,0,1,6.31,5,183.84,183.84,0,0,0,18.69,14.55l2.45,1.76,2.21,1.57,1.59,1.37v2h2v2l1.68.71a36.41,36.41,0,0,1,7.38,5.85c5.46,5.06,11.15,9.77,16.94,14.44l3.69,3c12.08,9.93,24.51,19.32,37.25,28.41l2,1.46a87,87,0,0,0,10.77,6.57c4.1,2.19,5.73,4.62,8.25,8.53a57.3,57.3,0,0,0,7,3.62,32.2,32.2,0,0,1,11,7.38c2.95,2.05,6.05,3.88,9.13,5.73,4.77,3,4.77,3,5.87,6.27a42.27,42.27,0,0,0,6,2.87,78.34,78.34,0,0,1,16.12,10.32A178.2,178.2,0,0,0,3484.34,772c6,3.52,11.9,7.19,17.72,11,31.72,21,31.72,21,64.94,39.5v3l2.43.71a98.78,98.78,0,0,1,12.69,5.91l2.57,1.35a137,137,0,0,1,13.5,8.15,94.72,94.72,0,0,0,12.87,7.44c7.73,3.74,15.25,7.84,22.75,12l3.43,1.9c5.23,2.91,10.37,5.88,15.4,9.13,5.31,3.43,10.77,6.46,16.36,9.41l2.75,1.45,8.37,4.36c7.56,3.93,15.1,7.87,22.6,11.89,5.21,2.79,10.5,5.42,15.79,8q11.94,6,23.8,12.06l2.32,1.19c8.77,4.5,17.46,9.06,25.93,14.12a158.59,158.59,0,0,0,19.35,9.76c6.28,2.7,12.37,5.71,18.47,8.81,10.13,5.14,20.39,10,30.74,14.68,19.37,8.86,19.37,8.86,25,13.32,2,1.63,2,1.63,5.55,1.62a14.64,14.64,0,0,1,8.34,3.36,116.24,116.24,0,0,0,16.78,9.2l3.46,1.66c10.19,4.83,20.49,9.45,30.79,14l2.34,1c10.06,4.47,10.06,4.47,20.24,8.63a79,79,0,0,1,11,5.46,128.94,128.94,0,0,0,19.88,8.56,195.67,195.67,0,0,1,27.52,12.57,121.23,121.23,0,0,0,22,9.18,76.22,76.22,0,0,1,8,3c.3.67.61,1.33.92,2,.91,2.18.91,2.18,3.21,2.74l2.43.36a37.05,37.05,0,0,1,4.44.88l1,2a32.88,32.88,0,0,1-17.69-1.31,95.66,95.66,0,0,0-16.56-3.75,99.72,99.72,0,0,1-17.12-3.94,146.06,146.06,0,0,0-15.25-3.1,104,104,0,0,1-10.43-2.64c-6.25-1.82-12.52-3.44-18.83-5l-3-.73-6.12-1.51c-15.94-3.92-31.83-7.88-47.54-12.61a131.9,131.9,0,0,0-17.12-4,32,32,0,0,1-6.25-1.9c-4.51-1.85-9.19-2.76-13.94-3.8a75.36,75.36,0,0,1-7.93-2.39,32,32,0,0,0-8.87-1.81c-4-.32-6.27-1.52-9.58-3.66-2.71-1.36-5.37-1.35-8.37-1.54a20.46,20.46,0,0,1-6.61-2.25,65.33,65.33,0,0,0-14.55-4.4,244.42,244.42,0,0,1-29.92-9.1c-4.67-1.69-9.35-3.34-14-5l-2.75-1C3739.7,985,3739.7,985,3719,981c-2-.48-2-.48-4-3.48a24,24,0,0,0-5.22-1.73l-3.29-.92-3.55-1c-9.64-2.74-19.14-5.71-28.56-9.12l-3.07-1.11c-4.47-1.64-8.86-3.35-13.19-5.34a33,33,0,0,0-9.37-2.86,16.74,16.74,0,0,1-7.13-2.37,37.43,37.43,0,0,0-9.37-3.7c-33.35-10.09-65.89-23.74-98-37.18l-3.69-1.54c-5-2.14-10-4.35-14.89-6.88a40.76,40.76,0,0,0-10.52-3.69c-4.82-1.3-9.31-3.59-13.84-5.64l-3.52-1.59c-13.94-6.27-27.82-12.69-41.71-19.09q-12.35-5.68-24.7-11.32l-4.3-2-20.33-9.28-9.62-4.39-4.57-2.09c-21.29-9.69-21.29-9.69-22.56-12.22l-3.44-.75c-5.52-1.24-9.85-4.23-14.56-7.25a59.76,59.76,0,0,0-8.88-4.69,142,142,0,0,1-30-17.53c-3-2-3-2-6.67-2.06-6.59-.55-11.93-4.89-17.37-8.35l-3.68-2.29-5.67-3.54c-4.32-2.7-8.68-5.32-13.07-7.9l-1.76-1-8.32-4.87-3-1.75L3241,769c-2-1.45-2-1.45-3-4.45l-2.05-.22c-3.85-1-6.8-3-10.07-5.22a206.49,206.49,0,0,0-18.57-10.62,151.29,151.29,0,0,1-20.57-12.67q-4.11-3-8.25-5.93l-4.32-3.09a99.33,99.33,0,0,0-13.39-8.07c-1.78-1.18-1.78-1.18-2.78-4.18a49.46,49.46,0,0,0-6.77-2c-3-1.39-3.62-3.23-5.23-6a24.74,24.74,0,0,0-4.5-3.38l-2.7-1.81c-2.69-1.74-5.4-3.43-8.11-5.12a155.15,155.15,0,0,1-13.63-9.85,151.61,151.61,0,0,0-15.87-10.54,37.57,37.57,0,0,1-7.59-7.52c-2.78-3.1-6.15-5.38-9.54-7.78a94.86,94.86,0,0,1-13.47-11.44,31.5,31.5,0,0,0-6.65-4.87l-2.41-1.43a54.32,54.32,0,0,0-8.53-3.26,169.52,169.52,0,0,0,23,34c4,4.74,4,4.74,4,7l1.81.7c2.78,1.65,3.61,3.31,5.19,6.11,4.09,6.72,9.23,12.1,14.63,17.75,14.12,14.86,14.12,14.86,15.37,21.44l5,1,.18,1.74c1.17,3.22,3.16,4.37,5.88,6.38,1.68,1.25,3.34,2.53,4.94,3.88v2h2v2h2v2h2a33.34,33.34,0,0,1,3.06,3.37c8.24,9.73,17,18.83,26,27.83l3.73,3.74,7.79,7.78,9.92,9.93,7.71,7.7,3.65,3.66c10.43,10.74,10.43,10.74,22.13,20v2l1.78.71c2.71,1.57,4,3.32,5.78,5.85,2.51,3.64,2.51,3.64,6.44,5.44,1.4,2,2.74,4,4,6-7.68,1-15.43,2-23,0q-3.12-.46-6.25-.88c-4.59-.63-9.1-1.36-13.64-2.28a116.44,116.44,0,0,0-18.42-2.34,69.46,69.46,0,0,1-18.69-3.5,69,69,0,0,0-15.19-2.88,205.05,205.05,0,0,1-22.84-3.73,75.26,75.26,0,0,0-12.41-1.77c-6.46-.39-12.54-2.54-18.71-4.39a96.73,96.73,0,0,0-18.16-3.71,14.56,14.56,0,0,1-5.6-2,34,34,0,0,0-10.15-3,102.9,102.9,0,0,1-13.75-3.37,153,153,0,0,0-15.49-4,369.27,369.27,0,0,1-38.79-11c-11.35-3.77-22.68-7.19-34.3-10a105.59,105.59,0,0,1-17.05-5.68,70,70,0,0,0-8.5-2.94,43.29,43.29,0,0,1-9.06-3.62c-3.85-2.09-7.58-2.72-11.9-3.25l-2.1-.69c-.67-1.33-1.33-2.67-2-4a10.38,10.38,0,0,0-4.31-.38c-5.92-.33-10.31-2.6-15.57-5.2a35.67,35.67,0,0,0-10.22-2.9,7.09,7.09,0,0,1-3.66-1.88c-3.09-2.26-6.5-3.42-10-4.77-10.53-4.1-20.9-8.55-31.25-13.06l-2.56-1.11c-12.27-5.35-24.41-10.92-36.41-16.85l-3-1.51-2.62-1.3a31.84,31.84,0,0,0-6.31-2,66.71,66.71,0,0,1-8.19-4.63,137.25,137.25,0,0,0-14.06-7.25,202,202,0,0,1-17.94-9.34c-3.12-1.82-6.25-3.56-9.5-5.16-13.62-6.7-26.8-14-39.82-21.8-14.22-9-14.22-9-29.49-15.82v-4l-2.54-.78a92.93,92.93,0,0,1-10.77-4.72l-1.92-.93c-4.65-2.33-4.65-2.33-5.77-4.57-1.43-.85-2.9-1.63-4.38-2.38-17.28-9.23-33.37-20.72-49.62-31.62l-10.38-6.94-2.26-1.52a68,68,0,0,0-7.36-4.54c-2,5.89-2.2,13,.08,18.76q1.35,2.47,2.76,4.91a15.16,15.16,0,0,1,1.66,6.83c.29,4.61,1.95,7.83,4.13,11.86a82.85,82.85,0,0,1,3.56,8.14,146,146,0,0,0,9.16,17.92,120.87,120.87,0,0,1,6.75,13.7,18.71,18.71,0,0,0,4.9,5.88c3,4.39,3,4.39,3,8l1.77.21c3.11,1.1,4,2.77,5.85,5.48.69,1,1.38,2,2.08,3l1.11,1.62c2.15,3.1,4.36,6.15,6.57,9.21s4.48,6.28,6.62,9.5l-1,3c-35.72-20.15-35.72-20.15-49-29v-3l-1.65-.38a24.14,24.14,0,0,1-11.54-6.31c-6.08-5.81-13.55-9.87-21.15-13.4-1.66-.91-1.66-.91-2.91-3.16-2.52-4-5.92-6.12-9.75-8.75l-2.38-1.65a60.7,60.7,0,0,0-8.69-5.29,15.91,15.91,0,0,1-5.12-4.75c-3.8-4.49-8.09-7.83-12.81-11.31-6-4.54-11.77-9.29-17.48-14.18-2.26-1.93-4.49-3.8-6.91-5.52l-1.61-1.3v-2l-1.62-.69a43.52,43.52,0,0,1-8.38-6.31v-2l-1.73-.78a34.71,34.71,0,0,1-6.52-4.72l-2.14-1.85c-1.61-1.65-1.61-1.65-1.61-3.65h-2v-2h-2v-2h-2c-1.58-1.94-2.95-4-4.37-6.06a12.44,12.44,0,0,0-5.63-3.94v-2h-2v-2h-2v-2h-2a42.93,42.93,0,0,1-2.81-4.25,30.1,30.1,0,0,0-8.19-8.75v-2l-1.65-.67a37.29,37.29,0,0,1-8-6.64l-1.49-1.44a20.85,20.85,0,0,1-5.89-9.25h-2c-1.68-2-3.26-3.94-4.81-6-1-1.3-2-2.59-3-3.89l-1.59-2c-2.09-2.68-4.26-5.29-6.42-7.91-5.25-6.34-10.24-12.81-15-19.53l-1.58-2.21c-3.61-5.16-3.61-5.16-3.61-7.41l-4-1c-.49-3.47-.49-3.47-1-7h-4l-1-2.15-1.32-2.79-1.3-2.78c-1.24-2.59-1.24-2.59-4.39-3.28a21.47,21.47,0,0,1-2.19-3.94l-1-2.15a7,7,0,0,1-.77-3.91h-2a32.54,32.54,0,0,1-3-3l-1.41-1.3a34.34,34.34,0,0,1-4.53-6.58,86,86,0,0,0-10.12-13l-1.5-1.62a68.63,68.63,0,0,0-7.69-7.07c-2.9-2.56-3.43-3.92-4.75-7.43-1.75-2.06-3.49-4-5.38-5.94a64.51,64.51,0,0,1-7.64-9.1,52.58,52.58,0,0,0-7.23-8.4l-1.46-1.44c-3.42-3.35-6.95-6.53-10.63-9.59a25.72,25.72,0,0,1-4.66-5.53v-4l-2.19-.76a31.61,31.61,0,0,1-7.75-5.05l-2.61-2.16-2.45-2-2-1.57c-1.38-1.09-2.71-2.26-4-3.43v-2l-1.69-.72a34.74,34.74,0,0,1-7.25-5.84c-9.54-8.81-20.77-17.62-33.62-20.63l-3.44-.81-1-2a23.11,23.11,0,0,0-16.69.5c-8.17,5.49-13.3,14-15.31,23.5-.89,15.61-.87,31.25,4.86,45.94,1.38,3.71,2.53,7.45,3.64,11.25l.65,2.2c1,3.51,2,7,2.74,10.59a94.74,94.74,0,0,0,8.94,24.2,52.6,52.6,0,0,1,5.17,16.82h4l.63,2.46c2.45,8.8,5.8,17,12.37,23.54.4,1.36.75,2.74,1.06,4.12,3.08,10.79,10,20.5,16.05,29.82,3.85,6.23,7.3,12.72,10.82,19.15.9,1.6,1.85,3.16,2.82,4.71,1.69,3,1.92,5.82,2.25,9.2l-6-1c-.06-.62-.12-1.24-.19-1.88l-.81-2.12-2.25-.88c-3.1-1.26-4.28-2.86-6.29-5.47a41,41,0,0,0-7.69-6.26c-1.77-1.39-1.77-1.39-3.77-4.39v-4h-5c-.21-.74-.41-1.49-.62-2.25-1.81-3.62-4-4.6-7.38-6.75a51.9,51.9,0,0,1-13-14v-3l-6-1v-5h-5c-.22-.75-.45-1.5-.68-2.27-1.62-3.36-3.32-4.44-6.44-6.42-1.66-1.06-3.3-2.15-4.88-3.31v-2h-2v-2h-2c-1.14-1.57-2.21-3.18-3.25-4.81-2.85-4.21-4.92-6.33-9.75-8.19a8.58,8.58,0,0,1-3-3,21.93,21.93,0,0,1,0-5l-2.18-.7c-3.38-1.56-5.31-3.5-7.88-6.18L2137.4,453l-2.4-2.51-2.1-2a68.53,68.53,0,0,1-5.28-6.26c-3.66-4.64-7.58-9-11.62-13.25-.61-.66-1.22-1.31-1.86-2l-3.56-3.78A215.07,215.07,0,0,1,2096,406c-6.71-9.57-6.71-9.57-15.49-16.9-3.09-2-4.42-4.05-6.32-7.16l-1.83-2.95c-1.36-2.49-1.36-2.49-1.36-4.49l-1.83-.72c-2.7-1.59-3.45-3.09-4.92-5.84a59.36,59.36,0,0,0-9.52-12.34,22.46,22.46,0,0,1-3.73-7.1,27.5,27.5,0,0,0-2.62-3.5,173.57,173.57,0,0,1-11.38-17.5l-1.68-2.7a18.73,18.73,0,0,1-2.32-5.43c-.73-2.84-.73-2.84-2.44-4.15-2.23-2.46-2.69-5-3.56-8.16-1.15-4.23-2.26-7.15-5-10.56v-2h-2v-2c-2.53-1-5.06-2-7.61-3l-2.58-1-2.6-1c-2.21-1-2.21-1-4.21-3-1.65-.5-3.32-.93-5-1.31a60.14,60.14,0,0,1-13.76-5.62,22,22,0,0,0-8.24-2.07v-3l-3.64-1.06c-6.73-2.24-12.84-5.69-19-9.07l-1.88-1A280.79,280.79,0,0,1,1913,236.52l-2.75-2.05-2.5-1.89-2.2-1.65-1.55-1.41v-2h-2c-1.69-2-3.35-4-5-6l-2-1v-2l-1.68-.72a38.09,38.09,0,0,1-7.44-5.78l-2.64-2.41c-1.43-1.34-2.85-2.7-4.24-4.09v-3h-3v-3l-2.23-.81a32.28,32.28,0,0,1-7.06-4.2l-2.4-1.79-2.5-1.89-5.16-3.83q-3.76-2.81-7.49-5.68c-5.9-4.44-12.32-7.28-19.09-10.14l-2.29-1-2.06-.85c-1.72-.85-1.72-.85-3.72-2.85a27.89,27.89,0,0,0-5.25-.56,57.14,57.14,0,0,1-8.65-1.09c-4-.45-6.69.4-10.48,1.65l-3.77,1.19c-8.14,3.35-13.14,9.79-17,17.43l-1.28,2.46c-4.24,8.59-6.21,17.52-8.06,26.87a21.51,21.51,0,0,1-1.54,4.72c-1.22,3.05-1.46,5.94-1.81,9.2a72.54,72.54,0,0,1-3.18,14.75c-3.13,11.39-2.81,23.15-2.92,34.88q0,4.14-.08,8.28-.09,7.93-.11,15.89,0,3.17,0,6.34c-.09,14.8.44,28.94,4.15,43.36,1.4,5.63,2.53,11.22,3.44,16.94a155.14,155.14,0,0,0,4.56,19.25l.73,2.49a58.66,58.66,0,0,0,4.46,11,18.35,18.35,0,0,1,2.35,7.9c.4,4.71,2.42,8.1,4.77,12.13a91.48,91.48,0,0,1,7.31,15.94,141.89,141.89,0,0,0,9.32,20.8q1.71,3.27,3.4,6.57c14.08,30.85,14.08,30.85,35.31,56.17,2.25,2.23,2.67,4.87,3.5,7.86,3,8.38,9.61,15.56,15,22.52q4.83,6.21,9.43,12.58l1.3,1.77c2,2.81,3.66,5.19,4.14,8.67-2,1-2,1-4.11.5-8.18-2.91-15.48-7-22.89-11.5l-3.77-2.24c-12.06-7.18-24-14.56-35.86-22q-4.78-3-9.61-5.93l-5.26-3.24-2.56-1.54-2.35-1.45-2.1-1.29-1.49-1.28v-3l-1.71-.49a47,47,0,0,1-14.73-7.39l-2-1.45q-2.16-1.53-4.3-3.08-3.37-2.42-6.76-4.78a288.21,288.21,0,0,1-24-18.81c-3.78-3.31-7.67-6.48-11.58-9.63l-1.91-1.54a34.13,34.13,0,0,0-7.21-4.85c-2.53-1.41-3.31-3.5-4.76-6a120.33,120.33,0,0,0-17.64-14.85l-1.36-1.15v-2l-1.94-.75c-2.06-1.25-2.06-1.25-2.81-3.38l-.25-1.87-6-1,1-4-2.75-.06c-3.25-.94-3.25-.94-5.11-4.08l-1-1.92a55,55,0,0,0-6.68-8.63c-8.44-9.72-8.44-9.72-8.44-13.31h-3a32.9,32.9,0,0,1-3.25-4.88c-2.43-4-4.9-7.91-7.56-11.75-.57-.81-1.13-1.63-1.71-2.47-1.35-2-1.35-2-3.48-2.9-1.47,8-.36,13.91,2.19,21.5.3,1,.61,1.93.92,2.93,1.52,4.73,3.18,9.36,5.07,14a39.22,39.22,0,0,1,2.82,9.92c.57,3.3.86,4.51,3,7.19s2.27,3.37,2.71,6.57c1.52,8.13,4.82,15.7,7.85,23.37l1,2.42c4.19,10.68,8.57,21.21,13.72,31.47a72.76,72.76,0,0,1,3.26,7.66,98.49,98.49,0,0,0,5.51,12,70.74,70.74,0,0,1,6.23,15.16c.74,2.09.74,2.09,2.61,4.17a51,51,0,0,1,6,10.23q1.05,2.15,2.11,4.29l1,2.15c3.87,7.76,8.11,15.3,12.62,22.71,5.64,9.36,5.64,9.36,7.41,13.91a49.79,49.79,0,0,0,5,8.67,5.06,5.06,0,0,1,1,3.77h2l1.38,3.56c2.38,5.43,5.64,10.17,9,15a59.12,59.12,0,0,1,5.18,8.74c1.15,2.77,1.15,2.77,3.4,3.59,3.29,1.73,4.2,5,5.66,8.27,6.81,14.29,16.41,26.76,25.7,39.5,1.67,2.29,3.32,4.59,5,6.89,9,12.59,18.17,25.09,27.89,37.17,3.73,4.63,7.44,9.28,11.06,14l2.2,2.86c1.55,2.39,1.55,2.39,1.55,5.39l2.23.72c6.67,3.08,11.21,10.12,14.77,16.34,3.93,6.51,9.31,11.45,14.72,16.72,12.61,12.32,12.61,12.32,16.28,20.22h2v2l1.69.71a39.44,39.44,0,0,1,14.62,15.16c1.84,3.4,3.59,4.88,6.69,7.13l4,4q2,1.72,3.94,3.44a111,111,0,0,1,9.06,8.56v2h2a30.19,30.19,0,0,1,3,3.31l1.89,2.21,2.11,2.48a130.75,130.75,0,0,0,20,19q2.91,2.37,5.81,4.75c2.65,2.17,5.29,4.32,8,6.39l2.18,1.86v2h2q1.34,2.1,2.65,4.21c2.15,2.85,4.88,4.95,7.64,7.18,1.71,1.61,1.71,1.61,2.71,4.61l2.16.17c3.74,1.09,5.76,3.31,8.34,6.08l1.39,1.45c2.19,2.27,4.36,4.57,6.53,6.87a77.64,77.64,0,0,0,11.2,8.3c1.49,1,2.94,2.06,4.38,3.13v2l1.73.79a39.5,39.5,0,0,1,6.52,4.52l2.64,2.14,3.11,2.55,6,4.85,4.19,3.42c4.39,3.58,8.84,7.05,13.44,10.36l1.41,1.37v3c-7.08-1.31-14-3-20.94-4.94l-3.18-.89c-9.72-2.77-19.37-5.76-29-8.8l-2.22-.69c-28-8.82-28-8.82-37.47-12.87a67.76,67.76,0,0,0-17.19-4.81v-3l-2-.26a46.23,46.23,0,0,1-16.34-5.51,48.46,48.46,0,0,0-11.65-3.36,33.69,33.69,0,0,1-8.08-3.85,59.5,59.5,0,0,0-10.44-4c-21.08-7.08-41.89-16.56-61.66-26.71a17.82,17.82,0,0,0-6.28-2.29c-3.5-1.06-3.5-1.06-6.17-2.89-4.54-3-9.36-4.91-14.35-7a86,86,0,0,1-11.8-6.09c-6.48-4-13.39-6.9-20.35-9.94a74.25,74.25,0,0,1-13.51-7.36,18.45,18.45,0,0,0-8.53-3.67c-6.88-1.21-12.6-5.35-18.48-8.92l-3.86-2.31q-3.89-2.32-7.76-4.66c-4.29-2.59-8.61-5.12-12.92-7.66-3.5-2.05-7-4.12-10.47-6.2-2.16-1.28-4.33-2.54-6.51-3.8l-3.6-2.12-3-1.76c-2.17-1.68-2.17-1.68-3-3.9l-.18-1.78-2.61-.3c-12.24-2.54-24-13.13-34.12-20.13-3.27-2.26-6.58-4.45-9.89-6.63-9.25-6.12-18.26-12.59-27.29-19-4.17-3-8.38-5.75-12.71-8.43a64.53,64.53,0,0,1-13.38-10.5v-2l-1.75-.82a45.32,45.32,0,0,1-6.23-4L1563.7,734l-2.45-1.83-2.54-1.88-5.17-3.85q-3.58-2.67-7.17-5.31l-4.25-3.14-1.95-1.44a86.81,86.81,0,0,1-10.17-9l-3-2v-2l-1.62-.69a43.52,43.52,0,0,1-8.38-6.31v-2l-1.8-.83a22.42,22.42,0,0,1-5.36-4l-1.72-1.6c-.57-.56-1.15-1.11-1.74-1.67a36.54,36.54,0,0,0-8.38-6.94v-2l-1.62-.69a43.52,43.52,0,0,1-8.38-6.31v-2l-3-1-1-3-2.31-.81c-3.63-1.61-4.53-3.89-6.69-7.19q-2.43-2.87-5-5.63l-1.5-1.61c-6.14-6.56-12.57-12.85-19-19.13l-2.55-2.52-2.3-2.25c-1.65-1.86-1.65-1.86-1.65-3.86h-2c-2-2.23-3.8-4.47-5.62-6.81l-1.57-2-1.47-1.89-1.36-1.73c-1-1.62-1-1.62-1-4.62h-4l-1.19-2.66a37.62,37.62,0,0,0-6.81-8.78c-5.44-5.79-5.44-5.79-6.69-9.37-1.56-3.79-3.34-5.09-6.52-7.51-2.1-2-2.93-3.91-4.17-6.49-1.53-2.53-2.59-3.93-5.51-4.67a83.59,83.59,0,0,0-11.41-.52c-3.7,0-3.7,0-5.7-1v3l-3.36,1-4.39,1.32-2.21.65a23.69,23.69,0,0,0-8.08,3.58c-2.87,2.14-6.11,2.67-9.52,3.52-22.89,6.25-44.83,21.26-57.2,41.63-4.08,7.6-3.94,17-2.24,25.31,3.25,9.92,8.42,19.27,13.21,28.51,1.42,2.78,2.78,5.56,4.08,8.39,4.7,10.29,11.14,19.22,17.75,28.37,3.46,4.82,6.83,9.72,10.21,14.6l6,8.55c1.63,2.33,3.24,4.67,4.86,7,.87,1.26,1.75,2.51,2.63,3.77l2.2,3.16a41.14,41.14,0,0,0,7.11,6.65c1.78,2.1,3.47,4.18,5.12,6.37l1.31,1.68c6.57,8.61,6.57,8.61,6.57,12.95l1.73.68c2.91,1.69,4.47,3.74,6.52,6.38l2.14,2.72c1.61,2.22,1.61,2.22,1.61,3.22q-2.94.12-5.88.19l-3.3.1-2.82-.29-2-3a37.89,37.89,0,0,0-6.5-1.56c-16.35-3.68-31.94-10.84-47.31-17.38l-2.6-1.11a74,74,0,0,1-9.36-4.63,19.87,19.87,0,0,0-7-2.51l-2.4-.48-1.79-.33v-3l-2.36-.68a126.15,126.15,0,0,1-14-6.38l-2.92-1.47q-13-6.56-25.77-13.47v-3l-3.56-.94c-16.31-5.48-31-18.13-44.87-28.08-4.33-3.11-8.69-6.16-13.06-9.21q-6.27-4.37-12.51-8.77l-1.84-1.29a172.89,172.89,0,0,1-19-15.89,220.33,220.33,0,0,0-19-15.94l-2.19-1.88v-2l-1.75-.81a32.51,32.51,0,0,1-6.25-4.19v-2l-4-2v-2l-2.81-.69c-3.19-1.31-3.19-1.31-4.46-3.51-2.3-3.72-5.26-6.1-8.61-8.86l-1.85-1.57c-2.69-2.26-5.39-4.46-8.22-6.55l-2-1.82v-3l-2.2-.78a33.24,33.24,0,0,1-7.61-4.72l-2.4-1.85-1.79-1.65v-2l-1.63-.66c-3.21-1.82-5.67-4.3-8.31-6.84-16.16-15.21-36.37-31.28-57.06-39.5l1-3-1.88-.51a91.41,91.41,0,0,1-17-6.8c-25.33-12.22-53.07-15.08-80.32-6.71-4.53,1.62-4.53,1.62-8.23,4.55-2.1,2-4,2.3-6.76,3-8.48,2.69-15.47,7.53-22.81,12.44l-2.08,1.39-2.06,1.38-2,1.35c-1.26.85-2.53,1.71-3.78,2.57a56.68,56.68,0,0,1-8.42,4.84c-2.79,1.16-2.79,1.16-3.22,3.48-.13.65-.27,1.31-.41,2a28.91,28.91,0,0,1-4.62,2.87c-8.13,5-14.61,11.49-21.38,18.13L824.42,592l-8.17,8.05-2.64,2.6-2.47,2.47-2.2,2.19a14.47,14.47,0,0,0-3.51,4.95L804,614.52h-3l-.68,1.64a40.59,40.59,0,0,1-6.51,8.05,158,158,0,0,0-11.13,13.23,61.6,61.6,0,0,1-5.74,6A42.33,42.33,0,0,0,766,660.52c-1.15,1.14-2.3,2.29-3.47,3.41-3.94,4.09-7.2,8.83-10.62,13.35l-1.83,2.38-1.65,2.17a7.25,7.25,0,0,1-3.43,2.69q-1.41,2.49-2.8,5a77.73,77.73,0,0,1-7.39,9.69c-4.63,5.6-9.11,11.27-13.43,17.12q-2.73,3.66-5.5,7.25c-5.09,6.59-10.11,13.16-14.76,20.06-3.22,4.73-6.53,9.38-11.12,12.88h-2l-.2,1.63c-1.14,3.36-3.36,5.64-5.68,8.24-3.12,3.59-6.2,7.18-9.08,11l-1.45,1.9c-.91,1.19-1.81,2.4-2.71,3.61a33.78,33.78,0,0,1-9.88,8.67,140.19,140.19,0,0,0-13.42,12.6A89.21,89.21,0,0,1,618,824.52l-3.44,1.73a115.61,115.61,0,0,1-19.39,7.31A42.14,42.14,0,0,0,588.3,836a47.45,47.45,0,0,1-12.24,2.64l-2.19.25c-2.29.26-4.58.5-6.87.74l-4.6.52-8.5.93c-2.62.29-5.23.61-7.85,1a112.72,112.72,0,0,1-12.86.7l-5,.1-7.78.14-7.59.14-2.32,0A57.64,57.64,0,0,0,496,845.52a27.61,27.61,0,0,1-4.5-.06,65.41,65.41,0,0,0-13.88,1.43l-2.09.39a25.86,25.86,0,0,0-7.47,2.27c-2.66,1.25-5.3,1.5-8.2,1.85-30.39,3.81-58.93,21.24-83.92,38.15a410.1,410.1,0,0,1-35.63,21.78l-1.87,1c-4.18,2.18-4.18,2.18-6.44,2.18v3l-2.1.59c-11.16,3.41-20.89,9-30.84,15a125.64,125.64,0,0,1-15.79,7.67c-5,2.16-9.84,4.63-14.65,7.27a125.81,125.81,0,0,1-17,7.75,230.26,230.26,0,0,0-22.5,10c-10.58,5.21-21.29,9.72-32.31,13.92-7.23,2.77-14.21,5.79-21.16,9.2a86.5,86.5,0,0,1-12.59,4.88,156.91,156.91,0,0,0-20.68,8.62,174.75,174.75,0,0,1-23.44,9.5A264.53,264.53,0,0,0,92,1022.27c-17.81,7.68-35.86,14.56-54.09,21.2l-2,.74q-4.86,1.77-9.71,3.52a136.16,136.16,0,0,0-18.75,8.17c-2.41.62-2.41.62-5.22-.76L0,1053.52c4.6-5.14,10.16-8.69,15.88-12.5l5.8-3.91,2.77-1.86a73.23,73.23,0,0,0,11.8-9A76.2,76.2,0,0,1,52.72,1014c2.38-1.29,2.38-1.29,3.17-3.43,1.36-2.55,2.67-3.37,5.14-4.84l2.4-1.45,2.51-1.48,2.5-1.51c6.08-3.64,6.08-3.64,9.56-4.8v-2a27.5,27.5,0,0,1,3.45-2.73l2.29-1.66,2.51-1.8,5.27-3.82,2.75-2c4.28-3.12,8.5-6.31,12.73-9.49q9.68-7.28,19.44-14.44c9.59-7,19-14.24,28.48-21.47l2.08-1.59,2.14-1.71c1.86-1.29,1.86-1.29,3.86-1.29.09-.6.17-1.2.26-1.81,1-2.84,2.15-3.56,4.62-5.22l2.46-1.69L173,922l5.47-3.74,2.8-1.9c4.11-2.8,8.17-5.67,12.23-8.55l2.12-1.49c2.61-1.85,5.2-3.68,7.72-5.65,1.66-1.17,1.66-1.17,3.66-1.17l.28-1.88c.72-2.12.72-2.12,2.22-3.18l2.06-.94c7.12-3.67,13.24-8.75,19.57-13.59,2.39-1.8,4.81-3.55,7.25-5.29,6.43-4.65,12.66-9.57,18.92-14.46,10-7.82,20.07-15.57,30.48-22.86,4.41-3.14,8.57-6.52,12.72-10a266.75,266.75,0,0,1,23-16.7c9.17-5.72,9.17-5.72,15.54-14.11a17.54,17.54,0,0,1,4-1.75c5.86-2.41,10.22-6.17,15-10.25,17.65-15,17.65-15,23-15v-3a16.72,16.72,0,0,1,3.2-2.58l2.13-1.49,2.36-1.62,4.95-3.49,2.65-1.87c4.61-3.32,9.09-6.8,13.59-10.26,6.43-5,12.85-9.72,19.74-14a17.07,17.07,0,0,0,4.69-4,74.69,74.69,0,0,1,10.75-8.4l4.58-3.19,2.25-1.57c3.86-2.73,7.61-5.58,11.38-8.43,2.59-2,5.22-3.86,7.85-5.75,5.91-4.26,11.58-8.79,17.3-13.29a97.91,97.91,0,0,1,14.93-9.91c2-1.09,2-1.09,2.65-4.11a15.45,15.45,0,0,1,8-2v-4a18.22,18.22,0,0,1,4-3.11l2.65-1.76,2.91-1.88,6.08-4,3.18-2.1c5.07-3.37,10.06-6.82,15.06-10.3l2.9-2c10-7,19.84-14.13,29.22-21.92,4.79-3.92,10-7,15.31-10.15a39.28,39.28,0,0,0,11.21-10.13c2.12-2.28,4.33-2.76,7.26-3.63,4-1.73,7.05-4.8,10.34-7.62a77.8,77.8,0,0,1,8.76-6.09c4.49-2.77,8.69-5.4,11.12-10.25l3.75-1.31c4.15-1.48,6.18-3.48,9.25-6.69,9.42-7.34,19.46-13.92,29.33-20.63,12.74-8.64,12.74-8.64,25.24-17.62,2.78-2,5.63-3.88,8.49-5.75a115.82,115.82,0,0,0,10.69-7.88,116.16,116.16,0,0,1,15.72-10.53,28.92,28.92,0,0,0,9.53-8.59c2.66-3.15,6-4.76,9.56-6.69l3.51-1.89c2.93-1.42,2.93-1.42,4.93-1.42v-3c2.57-1.83,5.11-3.45,7.81-5.06,9.2-5.63,18.18-11.54,27.13-17.56l5-3.38,3.15-2.11c2.43-1.6,4.87-3.12,7.36-4.61a45.36,45.36,0,0,0,8.51-7.28c2.33-1.58,4.65-3.06,7.06-4.5l4.24-2.6,2.28-1.4c5.29-3.29,10.48-6.72,15.68-10.12l2.44-1.6,2.27-1.49c1.65-1.05,3.34-2,5-3,2.29-1.23,2.29-1.23,3-4.31,2.19-1.22,4.35-2.28,6.62-3.31a215.54,215.54,0,0,0,20.5-11.38l2.93-1.8,6-3.66c4.94-3.05,9.9-6.05,14.88-9l2.68-1.64c10.17-6.07,18.25-7.71,30.13-7.61l3.79,0c8.91.17,16.27.87,24.52,4.41l2.25.94c5.16,2.19,10.25,4.51,15.32,6.91q3.38,1.59,6.77,3.13a99.83,99.83,0,0,1,22.2,14.21c3.5,2.89,7.17,5.48,10.9,8.06a63.48,63.48,0,0,1,12.13,10.47c1.74,1.55,3.16,1.88,5.43,2.28l.06,1.75c.81,2.6.81,2.6,4,3.89,4.73,2.59,7.93,6.36,11.47,10.36,4.2,4.72,8,8.66,13.44,12a57.6,57.6,0,0,1,6,6v3l1.74.32c8.2,2.48,15.79,11.44,21.26,17.68v2h2v2h2l1.5,2.12c3.53,4.06,7.81,6.33,12.5,8.88l2.67,1.56c3.85,1.66,7.14,1.87,11.26,1.84h2.26l4.72,0c2.39,0,4.77,0,7.15,0,7.8,0,14.69-.3,21.94-3.41q5-1.44,10-2.84a26.29,26.29,0,0,0,8-5.16c1.47-.8,3-1.55,4.5-2.25,4.28-2.08,8.42-4.36,12.5-6.81l3.31-2a11.33,11.33,0,0,0,4.69-6c1.37-.89,2.73-1.77,4.11-2.64,20.89-15.05,31.88-40.46,40.94-63.59,5.88-14.91,12.21-27.9,22.84-40,5.27-6,10.54-12.64,14.11-19.79l1.88-.25c2.43-.58,2.43-.58,3.46-3.49a28.47,28.47,0,0,1,6.35-8.2l2.71-2.63c2.71-2.53,5.46-5,8.27-7.39,3.17-2.78,6.25-5.66,9.33-8.54,4.3-4,8.62-8,13.08-11.83,2.33-2,4.63-4.1,6.92-6.17q5.41-4.89,10.93-9.67,2.33-2.07,4.61-4.19l2.65-2.45,2.42-2.27a21.75,21.75,0,0,1,7.39-3.92v-3a33.49,33.49,0,0,1,4.56-3.44c4.75-3.32,9.31-6.79,13.82-10.44q8.83-7.14,17.91-14a27.18,27.18,0,0,0,4.79-4.25,47.19,47.19,0,0,1,8.8-6.34,8.84,8.84,0,0,0,3.67-3.65c2.17-2.86,5.2-3.53,8.45-4.91l1-3a43.51,43.51,0,0,1,4.94-2.81c8.24-4.64,15.4-10.55,22.8-16.41,5.35-4.21,10.83-8.24,16.29-12.3,2-1.51,4-3,6-4.54,6.58-5,13.22-9.9,20.09-14.5l1.83-1.23c9.41-6.21,9.41-6.21,14-6.21.19-1,.37-1.9.56-2.88,1.44-3.12,1.44-3.12,4.88-4.43l3.56-.69,3-1c.46-1,.46-1,.94-2l1.06-2c1.33-.36,2.66-.69,4-1,.53-.56,1-1.12,1.6-1.69,3.31-3.19,7.06-5.41,11-7.81l5.15-3.21,2.66-1.65q6.18-3.85,12.32-7.77c4.64-2.93,9.28-5.86,14-8.74l2.23-1.38,4.14-2.54a33,33,0,0,0,6.46-4.71,18.69,18.69,0,0,1,5.21-3.52l2.22-1.14,2.41-1.22c7.55-3.89,14.94-8,22.25-12.31l2.7-1.58c5.34-3.17,10.44-6.55,15.46-10.21a50.65,50.65,0,0,1,9.26-4.62,17.47,17.47,0,0,0,5.08-3,37.74,37.74,0,0,1,8.77-4,43.31,43.31,0,0,0,6.64-3.57c6-3.63,12.09-6.91,18.28-10.13l1.77-.93a283.51,283.51,0,0,1,26.87-12.2,157.59,157.59,0,0,0,26.93-13.17c3.57-2.08,7.08-2.64,11.11-3.34,4.24-.91,8-2.7,12-4.49a95.49,95.49,0,0,1,18.68-6.36,92.36,92.36,0,0,0,9.69-3.08c8.36-2.79,17-4.08,25.69-5.43l2.12-.34C1875.82-2.28,1896.69,1,1915.79,15.66Z"/>
        </g>
    </g>
</svg>
