<svg class="mb-12" xmlns="http://www.w3.org/2000/svg"
     enable-background="new 0 0 24 24"
     viewBox="0 0 24 24" width="56" height="56">
    <path fill="#818cf8" d="M21,12c0,5-4,9-9,9c-2.5,0-4.7-1-6.4-2.6S3,14.5,3,12c0-5,4-9,9-9c2.5,0,4.7,1,6.4,2.6C20,7.3,21,9.5,21,12z"
            class="color2bc98e svgShape fill-teal-400"/>
    <path fill="#ffffff" d="M16.2,11H13V7.8c0-0.6-0.4-1-1-1s-1,0.4-1,1V11H7.8c-0.6,0-1,0.4-1,1s0.4,1,1,1H11v3.2c0,0.6,0.4,1,1,1
		s1-0.4,1-1V13h3.2c0.6,0,1-0.4,1-1S16.8,11,16.2,11z"/>
    <path d="M21,12c0,5-4,9-9,9c-2.5,0-4.7-1-6.4-2.6L18.4,5.6C20,7.3,21,9.5,21,12z"
          opacity=".1" fill="#000000"/>
</svg>
